<?xml version="1.0" encoding="utf-8"?>
<svg xmlns="http://www.w3.org/2000/svg" version="1.1" class="railroad-diagram" width="214" height="130" viewBox="0 0 214 130">
    <g transform="translate(.5 .5)">
        <g>
            <path d="M20 21v20m0 -10h20"></path>
        </g>
        <path d="M40 31h10"></path>
        <g>
            <path d="M50 31h0"></path>
            <path d="M164 31h0"></path>
            <path d="M50 31h10"></path>
            <g>
                <path d="M60 31h0"></path>
                <path d="M154 31h0"></path>
                <path d="M60 31h20"></path>
                <g class="terminal">
                    <path d="M80 31h0"></path>
                    <path d="M134 31h0"></path>
                    <rect x="80" y="20" width="54" height="22" rx="10" ry="10"></rect>
                    <text x="107" y="35">0x20</text>
                </g>
                <path d="M134 31h20"></path>
                <path d="M60 31a10 10 0 0 1 10 10v10a10 10 0 0 0 10 10"></path>
                <g class="terminal">
                    <path d="M80 61h8.5"></path>
                    <path d="M125.5 61h8.5"></path>
                    <rect x="88.5" y="50" width="37" height="22" rx="10" ry="10"></rect>
                    <text x="107" y="65">\t</text>
                </g>
                <path d="M134 61a10 10 0 0 0 10 -10v-10a10 10 0 0 1 10 -10"></path>
                <path d="M60 31a10 10 0 0 1 10 10v40a10 10 0 0 0 10 10"></path>
                <g class="terminal">
                    <path d="M80 91h8.5"></path>
                    <path d="M125.5 91h8.5"></path>
                    <rect x="88.5" y="80" width="37" height="22" rx="10" ry="10"></rect>
                    <text x="107" y="95">\f</text>
                </g>
                <path d="M134 91a10 10 0 0 0 10 -10v-40a10 10 0 0 1 10 -10"></path>
            </g>
            <path d="M154 31h10"></path>
            <path d="M60 31a10 10 0 0 0 -10 10v59a10 10 0 0 0 10 10"></path>
            <g>
                <path d="M60 110h94"></path>
            </g>
            <path d="M154 110a10 10 0 0 0 10 -10v-59a10 10 0 0 0 -10 -10"></path>
        </g>
        <path d="M164 31h10"></path>
        <path d="M 174 31 h 20 m 0 -10 v 20"></path>
    </g>
    <style>
        svg {
        }
        path {
        stroke-width: 3;
        stroke: black;
        fill: rgba(0,0,0,0);
        }
        text {
        font: bold 14px monospace;
        text-anchor: middle;
        white-space: pre;
        }
        text.diagram-text {
        font-size: 12px;
        }
        text.diagram-arrow {
        font-size: 16px;
        }
        text.label {
        text-anchor: start;
        }
        text.comment {
        font: italic 12px monospace;
        }
        g.non-terminal text {
        /*font-style: italic;*/
        }
        rect {
        stroke-width: 3;
        stroke: black;
        fill: hsl(120,100%,90%);
        }
        path.diagram-text {
        stroke-width: 3;
        stroke: black;
        fill: white;
        cursor: help;
        }
        g.diagram-text:hover path.diagram-text {
        fill: #eee;
        }
    </style>
</svg>
