<?xml version="1.0" encoding="utf-8"?>
<svg xmlns="http://www.w3.org/2000/svg" version="1.1" class="railroad-diagram" width="148.5" height="722" viewBox="0 0 148.5 722">
    <g transform="translate(.5 .5)">
        <g>
            <path d="M20 21v20m0 -10h20"></path>
        </g>
        <g>
            <path d="M40 31h0"></path>
            <path d="M108.5 31h0"></path>
            <path d="M40 31h20"></path>
            <g class="terminal">
                <path d="M60 31h0"></path>
                <path d="M88.5 31h0"></path>
                <rect x="60" y="20" width="28.5" height="22" rx="10" ry="10"></rect>
                <text x="74.25" y="35">0</text>
            </g>
            <path d="M88.5 31h20"></path>
            <path d="M40 31a10 10 0 0 1 10 10v10a10 10 0 0 0 10 10"></path>
            <g class="terminal">
                <path d="M60 61h0"></path>
                <path d="M88.5 61h0"></path>
                <rect x="60" y="50" width="28.5" height="22" rx="10" ry="10"></rect>
                <text x="74.25" y="65">1</text>
            </g>
            <path d="M88.5 61a10 10 0 0 0 10 -10v-10a10 10 0 0 1 10 -10"></path>
            <path d="M40 31a10 10 0 0 1 10 10v40a10 10 0 0 0 10 10"></path>
            <g class="terminal">
                <path d="M60 91h0"></path>
                <path d="M88.5 91h0"></path>
                <rect x="60" y="80" width="28.5" height="22" rx="10" ry="10"></rect>
                <text x="74.25" y="95">2</text>
            </g>
            <path d="M88.5 91a10 10 0 0 0 10 -10v-40a10 10 0 0 1 10 -10"></path>
            <path d="M40 31a10 10 0 0 1 10 10v70a10 10 0 0 0 10 10"></path>
            <g class="terminal">
                <path d="M60 121h0"></path>
                <path d="M88.5 121h0"></path>
                <rect x="60" y="110" width="28.5" height="22" rx="10" ry="10"></rect>
                <text x="74.25" y="125">3</text>
            </g>
            <path d="M88.5 121a10 10 0 0 0 10 -10v-70a10 10 0 0 1 10 -10"></path>
            <path d="M40 31a10 10 0 0 1 10 10v100a10 10 0 0 0 10 10"></path>
            <g class="terminal">
                <path d="M60 151h0"></path>
                <path d="M88.5 151h0"></path>
                <rect x="60" y="140" width="28.5" height="22" rx="10" ry="10"></rect>
                <text x="74.25" y="155">4</text>
            </g>
            <path d="M88.5 151a10 10 0 0 0 10 -10v-100a10 10 0 0 1 10 -10"></path>
            <path d="M40 31a10 10 0 0 1 10 10v130a10 10 0 0 0 10 10"></path>
            <g class="terminal">
                <path d="M60 181h0"></path>
                <path d="M88.5 181h0"></path>
                <rect x="60" y="170" width="28.5" height="22" rx="10" ry="10"></rect>
                <text x="74.25" y="185">5</text>
            </g>
            <path d="M88.5 181a10 10 0 0 0 10 -10v-130a10 10 0 0 1 10 -10"></path>
            <path d="M40 31a10 10 0 0 1 10 10v160a10 10 0 0 0 10 10"></path>
            <g class="terminal">
                <path d="M60 211h0"></path>
                <path d="M88.5 211h0"></path>
                <rect x="60" y="200" width="28.5" height="22" rx="10" ry="10"></rect>
                <text x="74.25" y="215">6</text>
            </g>
            <path d="M88.5 211a10 10 0 0 0 10 -10v-160a10 10 0 0 1 10 -10"></path>
            <path d="M40 31a10 10 0 0 1 10 10v190a10 10 0 0 0 10 10"></path>
            <g class="terminal">
                <path d="M60 241h0"></path>
                <path d="M88.5 241h0"></path>
                <rect x="60" y="230" width="28.5" height="22" rx="10" ry="10"></rect>
                <text x="74.25" y="245">7</text>
            </g>
            <path d="M88.5 241a10 10 0 0 0 10 -10v-190a10 10 0 0 1 10 -10"></path>
            <path d="M40 31a10 10 0 0 1 10 10v220a10 10 0 0 0 10 10"></path>
            <g class="terminal">
                <path d="M60 271h0"></path>
                <path d="M88.5 271h0"></path>
                <rect x="60" y="260" width="28.5" height="22" rx="10" ry="10"></rect>
                <text x="74.25" y="275">8</text>
            </g>
            <path d="M88.5 271a10 10 0 0 0 10 -10v-220a10 10 0 0 1 10 -10"></path>
            <path d="M40 31a10 10 0 0 1 10 10v250a10 10 0 0 0 10 10"></path>
            <g class="terminal">
                <path d="M60 301h0"></path>
                <path d="M88.5 301h0"></path>
                <rect x="60" y="290" width="28.5" height="22" rx="10" ry="10"></rect>
                <text x="74.25" y="305">9</text>
            </g>
            <path d="M88.5 301a10 10 0 0 0 10 -10v-250a10 10 0 0 1 10 -10"></path>
            <path d="M40 31a10 10 0 0 1 10 10v280a10 10 0 0 0 10 10"></path>
            <g class="terminal">
                <path d="M60 331h0"></path>
                <path d="M88.5 331h0"></path>
                <rect x="60" y="320" width="28.5" height="22" rx="10" ry="10"></rect>
                <text x="74.25" y="335">9</text>
            </g>
            <path d="M88.5 331a10 10 0 0 0 10 -10v-280a10 10 0 0 1 10 -10"></path>
            <path d="M40 31a10 10 0 0 1 10 10v310a10 10 0 0 0 10 10"></path>
            <g class="terminal">
                <path d="M60 361h0"></path>
                <path d="M88.5 361h0"></path>
                <rect x="60" y="350" width="28.5" height="22" rx="10" ry="10"></rect>
                <text x="74.25" y="365">a</text>
            </g>
            <path d="M88.5 361a10 10 0 0 0 10 -10v-310a10 10 0 0 1 10 -10"></path>
            <path d="M40 31a10 10 0 0 1 10 10v340a10 10 0 0 0 10 10"></path>
            <g class="terminal">
                <path d="M60 391h0"></path>
                <path d="M88.5 391h0"></path>
                <rect x="60" y="380" width="28.5" height="22" rx="10" ry="10"></rect>
                <text x="74.25" y="395">b</text>
            </g>
            <path d="M88.5 391a10 10 0 0 0 10 -10v-340a10 10 0 0 1 10 -10"></path>
            <path d="M40 31a10 10 0 0 1 10 10v370a10 10 0 0 0 10 10"></path>
            <g class="terminal">
                <path d="M60 421h0"></path>
                <path d="M88.5 421h0"></path>
                <rect x="60" y="410" width="28.5" height="22" rx="10" ry="10"></rect>
                <text x="74.25" y="425">c</text>
            </g>
            <path d="M88.5 421a10 10 0 0 0 10 -10v-370a10 10 0 0 1 10 -10"></path>
            <path d="M40 31a10 10 0 0 1 10 10v400a10 10 0 0 0 10 10"></path>
            <g class="terminal">
                <path d="M60 451h0"></path>
                <path d="M88.5 451h0"></path>
                <rect x="60" y="440" width="28.5" height="22" rx="10" ry="10"></rect>
                <text x="74.25" y="455">d</text>
            </g>
            <path d="M88.5 451a10 10 0 0 0 10 -10v-400a10 10 0 0 1 10 -10"></path>
            <path d="M40 31a10 10 0 0 1 10 10v430a10 10 0 0 0 10 10"></path>
            <g class="terminal">
                <path d="M60 481h0"></path>
                <path d="M88.5 481h0"></path>
                <rect x="60" y="470" width="28.5" height="22" rx="10" ry="10"></rect>
                <text x="74.25" y="485">e</text>
            </g>
            <path d="M88.5 481a10 10 0 0 0 10 -10v-430a10 10 0 0 1 10 -10"></path>
            <path d="M40 31a10 10 0 0 1 10 10v460a10 10 0 0 0 10 10"></path>
            <g class="terminal">
                <path d="M60 511h0"></path>
                <path d="M88.5 511h0"></path>
                <rect x="60" y="500" width="28.5" height="22" rx="10" ry="10"></rect>
                <text x="74.25" y="515">f</text>
            </g>
            <path d="M88.5 511a10 10 0 0 0 10 -10v-460a10 10 0 0 1 10 -10"></path>
            <path d="M40 31a10 10 0 0 1 10 10v490a10 10 0 0 0 10 10"></path>
            <g class="terminal">
                <path d="M60 541h0"></path>
                <path d="M88.5 541h0"></path>
                <rect x="60" y="530" width="28.5" height="22" rx="10" ry="10"></rect>
                <text x="74.25" y="545">A</text>
            </g>
            <path d="M88.5 541a10 10 0 0 0 10 -10v-490a10 10 0 0 1 10 -10"></path>
            <path d="M40 31a10 10 0 0 1 10 10v520a10 10 0 0 0 10 10"></path>
            <g class="terminal">
                <path d="M60 571h0"></path>
                <path d="M88.5 571h0"></path>
                <rect x="60" y="560" width="28.5" height="22" rx="10" ry="10"></rect>
                <text x="74.25" y="575">B</text>
            </g>
            <path d="M88.5 571a10 10 0 0 0 10 -10v-520a10 10 0 0 1 10 -10"></path>
            <path d="M40 31a10 10 0 0 1 10 10v550a10 10 0 0 0 10 10"></path>
            <g class="terminal">
                <path d="M60 601h0"></path>
                <path d="M88.5 601h0"></path>
                <rect x="60" y="590" width="28.5" height="22" rx="10" ry="10"></rect>
                <text x="74.25" y="605">C</text>
            </g>
            <path d="M88.5 601a10 10 0 0 0 10 -10v-550a10 10 0 0 1 10 -10"></path>
            <path d="M40 31a10 10 0 0 1 10 10v580a10 10 0 0 0 10 10"></path>
            <g class="terminal">
                <path d="M60 631h0"></path>
                <path d="M88.5 631h0"></path>
                <rect x="60" y="620" width="28.5" height="22" rx="10" ry="10"></rect>
                <text x="74.25" y="635">D</text>
            </g>
            <path d="M88.5 631a10 10 0 0 0 10 -10v-580a10 10 0 0 1 10 -10"></path>
            <path d="M40 31a10 10 0 0 1 10 10v610a10 10 0 0 0 10 10"></path>
            <g class="terminal">
                <path d="M60 661h0"></path>
                <path d="M88.5 661h0"></path>
                <rect x="60" y="650" width="28.5" height="22" rx="10" ry="10"></rect>
                <text x="74.25" y="665">E</text>
            </g>
            <path d="M88.5 661a10 10 0 0 0 10 -10v-610a10 10 0 0 1 10 -10"></path>
            <path d="M40 31a10 10 0 0 1 10 10v640a10 10 0 0 0 10 10"></path>
            <g class="terminal">
                <path d="M60 691h0"></path>
                <path d="M88.5 691h0"></path>
                <rect x="60" y="680" width="28.5" height="22" rx="10" ry="10"></rect>
                <text x="74.25" y="695">F</text>
            </g>
            <path d="M88.5 691a10 10 0 0 0 10 -10v-640a10 10 0 0 1 10 -10"></path>
        </g>
        <path d="M 108.5 31 h 20 m 0 -10 v 20"></path>
    </g>
    <style>
        svg {
        }
        path {
        stroke-width: 3;
        stroke: black;
        fill: rgba(0,0,0,0);
        }
        text {
        font: bold 14px monospace;
        text-anchor: middle;
        white-space: pre;
        }
        text.diagram-text {
        font-size: 12px;
        }
        text.diagram-arrow {
        font-size: 16px;
        }
        text.label {
        text-anchor: start;
        }
        text.comment {
        font: italic 12px monospace;
        }
        g.non-terminal text {
        /*font-style: italic;*/
        }
        rect {
        stroke-width: 3;
        stroke: black;
        fill: hsl(120,100%,90%);
        }
        path.diagram-text {
        stroke-width: 3;
        stroke: black;
        fill: white;
        cursor: help;
        }
        g.diagram-text:hover path.diagram-text {
        fill: #eee;
        }
    </style>
</svg>
