<?xml version="1.0" encoding="utf-8"?>
<svg xmlns="http://www.w3.org/2000/svg" version="1.1" class="railroad-diagram" width="403" height="80" viewBox="0 0 403 80">
    <g transform="translate(.5 .5)">
        <g>
            <path d="M20 30v20m0 -10h20"></path>
        </g>
        <path d="M40 40h10"></path>
        <g>
            <path d="M50 40h0"></path>
            <path d="M353 40h0"></path>
            <g class="terminal">
                <path d="M50 40h0"></path>
                <path d="M78.5 40h0"></path>
                <rect x="50" y="29" width="28.5" height="22" rx="10" ry="10"></rect>
                <text x="64.25" y="44">\</text>
            </g>
            <path d="M78.5 40h10"></path>
            <path d="M88.5 40h10"></path>
            <g class="non-terminal">
                <path d="M98.5 40h0"></path>
                <path d="M212 40h0"></path>
                <rect x="98.5" y="29" width="113.5" height="22"></rect>
                <text x="155.25" y="44">end-of-line</text>
            </g>
            <path d="M212 40h10"></path>
            <g>
                <path d="M222 40h0"></path>
                <path d="M353 40h0"></path>
                <path d="M222 40a10 10 0 0 0 10 -10v0a10 10 0 0 1 10 -10"></path>
                <g>
                    <path d="M242 20h91"></path>
                </g>
                <path d="M333 20a10 10 0 0 1 10 10v0a10 10 0 0 0 10 10"></path>
                <path d="M222 40h20"></path>
                <g>
                    <path d="M242 40h0"></path>
                    <path d="M333 40h0"></path>
                    <path d="M242 40h10"></path>
                    <g class="non-terminal">
                        <path d="M252 40h0"></path>
                        <path d="M323 40h0"></path>
                        <rect x="252" y="29" width="71" height="22"></rect>
                        <text x="287.5" y="44">blanks</text>
                    </g>
                    <path d="M323 40h10"></path>
                    <path d="M252 40a10 10 0 0 0 -10 10v0a10 10 0 0 0 10 10"></path>
                    <g>
                        <path d="M252 60h71"></path>
                    </g>
                    <path d="M323 60a10 10 0 0 0 10 -10v0a10 10 0 0 0 -10 -10"></path>
                </g>
                <path d="M333 40h20"></path>
            </g>
        </g>
        <path d="M353 40h10"></path>
        <path d="M 363 40 h 20 m 0 -10 v 20"></path>
    </g>
    <style>
        svg {
        }
        path {
        stroke-width: 3;
        stroke: black;
        fill: rgba(0,0,0,0);
        }
        text {
        font: bold 14px monospace;
        text-anchor: middle;
        white-space: pre;
        }
        text.diagram-text {
        font-size: 12px;
        }
        text.diagram-arrow {
        font-size: 16px;
        }
        text.label {
        text-anchor: start;
        }
        text.comment {
        font: italic 12px monospace;
        }
        g.non-terminal text {
        /*font-style: italic;*/
        }
        rect {
        stroke-width: 3;
        stroke: black;
        fill: hsl(120,100%,90%);
        }
        path.diagram-text {
        stroke-width: 3;
        stroke: black;
        fill: white;
        cursor: help;
        }
        g.diagram-text:hover path.diagram-text {
        fill: #eee;
        }
    </style>
</svg>
