<?xml version="1.0" encoding="utf-8"?>
<svg xmlns="http://www.w3.org/2000/svg" version="1.1" class="railroad-diagram" width="632" height="161" viewBox="0 0 632 161">
<g transform="translate(.5 .5)">
    <g>
        <path d="M20 21v20m10 -20v20m-10 -10h20"></path>
    </g>
    <path d="M40 31h10"></path>
    <g>
        <path d="M50 31h0"></path>
        <path d="M582 31h0"></path>
        <g>
            <path d="M50 31h0"></path>
            <path d="M424.5 31h0"></path>
            <path d="M50 31h20"></path>
            <g class="non-terminal">
                <path d="M70 31h127.5"></path>
                <path d="M277 31h127.5"></path>
                <rect x="197.5" y="20" width="79.5" height="22"></rect>
                <text x="237.25" y="35">comment</text>
            </g>
            <path d="M404.5 31h20"></path>
            <path d="M50 31a10 10 0 0 1 10 10v10a10 10 0 0 0 10 10"></path>
            <g class="non-terminal">
                <path d="M70 61h136"></path>
                <path d="M268.5 61h136"></path>
                <rect x="206" y="50" width="62.5" height="22"></rect>
                <text x="237.25" y="65">space</text>
            </g>
            <path d="M404.5 61a10 10 0 0 0 10 -10v-10a10 10 0 0 1 10 -10"></path>
            <path d="M50 31a10 10 0 0 1 10 10v40a10 10 0 0 0 10 10"></path>
            <g class="non-terminal">
                <path d="M70 91h144.5"></path>
                <path d="M260 91h144.5"></path>
                <rect x="214.5" y="80" width="45.5" height="22"></rect>
                <text x="237.25" y="95">key</text>
            </g>
            <path d="M404.5 91a10 10 0 0 0 10 -10v-40a10 10 0 0 1 10 -10"></path>
            <path d="M50 31a10 10 0 0 1 10 10v79a10 10 0 0 0 10 10"></path>
            <g>
                <path d="M70 130h0"></path>
                <path d="M404.5 130h0"></path>
                <g>
                    <path d="M70 130h0"></path>
                    <path d="M155.5 130h0"></path>
                    <path d="M70 130a10 10 0 0 0 10 -10v0a10 10 0 0 1 10 -10"></path>
                    <g>
                        <path d="M90 110h45.5"></path>
                    </g>
                    <path d="M135.5 110a10 10 0 0 1 10 10v0a10 10 0 0 0 10 10"></path>
                    <path d="M70 130h20"></path>
                    <g class="non-terminal">
                        <path d="M90 130h0"></path>
                        <path d="M135.5 130h0"></path>
                        <rect x="90" y="119" width="45.5" height="22"></rect>
                        <text x="112.75" y="134">key</text>
                    </g>
                    <path d="M135.5 130h20"></path>
                </g>
                <path d="M155.5 130h10"></path>
                <g>
                    <path d="M165.5 130h0"></path>
                    <path d="M404.5 130h0"></path>
                    <g>
                        <path d="M165.5 130h0"></path>
                        <path d="M302 130h0"></path>
                        <path d="M165.5 130h20"></path>
                        <g class="non-terminal">
                            <path d="M185.5 130h0"></path>
                            <path d="M282 130h0"></path>
                            <rect x="185.5" y="119" width="96.5" height="22"></rect>
                            <text x="233.75" y="134">separator</text>
                        </g>
                        <path d="M282 130h20"></path>
                    </g>
                    <g>
                        <path d="M302 130h0"></path>
                        <path d="M404.5 130h0"></path>
                        <path d="M302 130a10 10 0 0 0 10 -10v0a10 10 0 0 1 10 -10"></path>
                        <g>
                            <path d="M322 110h62.5"></path>
                        </g>
                        <path d="M384.5 110a10 10 0 0 1 10 10v0a10 10 0 0 0 10 10"></path>
                        <path d="M302 130h20"></path>
                        <g class="non-terminal">
                            <path d="M322 130h0"></path>
                            <path d="M384.5 130h0"></path>
                            <rect x="322" y="119" width="62.5" height="22"></rect>
                            <text x="353.25" y="134">value</text>
                        </g>
                        <path d="M384.5 130h20"></path>
                    </g>
                </g>
            </g>
            <path d="M404.5 130a10 10 0 0 0 10 -10v-79a10 10 0 0 1 10 -10"></path>
        </g>
        <path d="M424.5 31h10"></path>
        <g class="non-terminal">
            <path d="M434.5 31h0"></path>
            <path d="M582 31h0"></path>
            <rect x="434.5" y="20" width="147.5" height="22"></rect>
            <text x="508.25" y="35">end-of-property</text>
        </g>
    </g>
    <path d="M582 31h10"></path>
    <path d="M 592 31 h 20 m -10 -10 v 20 m 10 -20 v 20"></path>
</g>
    <style>
        svg {
        }
        path {
        stroke-width: 3;
        stroke: black;
        fill: rgba(0,0,0,0);
        }
        text {
        font: bold 14px monospace;
        text-anchor: middle;
        white-space: pre;
        }
        text.diagram-text {
        font-size: 12px;
        }
        text.diagram-arrow {
        font-size: 16px;
        }
        text.label {
        text-anchor: start;
        }
        text.comment {
        font: italic 12px monospace;
        }
        g.non-terminal text {
        /*font-style: italic;*/
        }
        rect {
        stroke-width: 3;
        stroke: black;
        fill: hsl(120,100%,90%);
        }
        path.diagram-text {
        stroke-width: 3;
        stroke: black;
        fill: white;
        cursor: help;
        }
        g.diagram-text:hover path.diagram-text {
        fill: #eee;
        }
    </style>
</svg>
