<?xml version="1.0" encoding="utf-8"?>
<svg xmlns="http://www.w3.org/2000/svg" version="1.1" class="railroad-diagram" width="265" height="100" viewBox="0 0 265 100">
    <g transform="translate(.5 .5)">
        <g>
            <path d="M20 21v20m0 -10h20"></path>
        </g>
        <path d="M40 31h10"></path>
        <g>
            <path d="M50 31h0"></path>
            <path d="M215 31h0"></path>
            <path d="M50 31h10"></path>
            <g>
                <path d="M60 31h0"></path>
                <path d="M205 31h0"></path>
                <path d="M60 31h20"></path>
                <g class="non-terminal">
                    <path d="M80 31h17"></path>
                    <path d="M168 31h17"></path>
                    <rect x="97" y="20" width="71" height="22"></rect>
                    <text x="132.5" y="35">blanks</text>
                </g>
                <path d="M185 31h20"></path>
                <path d="M60 31a10 10 0 0 1 10 10v10a10 10 0 0 0 10 10"></path>
                <g class="non-terminal">
                    <path d="M80 61h0"></path>
                    <path d="M185 61h0"></path>
                    <rect x="80" y="50" width="105" height="22"></rect>
                    <text x="132.5" y="65">line-break</text>
                </g>
                <path d="M185 61a10 10 0 0 0 10 -10v-10a10 10 0 0 1 10 -10"></path>
            </g>
            <path d="M205 31h10"></path>
            <path d="M60 31a10 10 0 0 0 -10 10v29a10 10 0 0 0 10 10"></path>
            <g>
                <path d="M60 80h145"></path>
            </g>
            <path d="M205 80a10 10 0 0 0 10 -10v-29a10 10 0 0 0 -10 -10"></path>
        </g>
        <path d="M215 31h10"></path>
        <path d="M 225 31 h 20 m 0 -10 v 20"></path>
    </g>
    <style>
        svg {
        }
        path {
        stroke-width: 3;
        stroke: black;
        fill: rgba(0,0,0,0);
        }
        text {
        font: bold 14px monospace;
        text-anchor: middle;
        white-space: pre;
        }
        text.diagram-text {
        font-size: 12px;
        }
        text.diagram-arrow {
        font-size: 16px;
        }
        text.label {
        text-anchor: start;
        }
        text.comment {
        font: italic 12px monospace;
        }
        g.non-terminal text {
        /*font-style: italic;*/
        }
        rect {
        stroke-width: 3;
        stroke: black;
        fill: hsl(120,100%,90%);
        }
        path.diagram-text {
        stroke-width: 3;
        stroke: black;
        fill: white;
        cursor: help;
        }
        g.diagram-text:hover path.diagram-text {
        fill: #eee;
        }
    </style>
</svg>
