<?xml version="1.0" encoding="utf-8"?>
<svg xmlns="http://www.w3.org/2000/svg" version="1.1" class="railroad-diagram" width="148.5" height="92" viewBox="0 0 148.5 92">
    <g transform="translate(.5 .5)">
        <g>
            <path d="M20 21v20m0 -10h20"></path>
        </g>
        <g>
            <path d="M40 31h0"></path>
            <path d="M108.5 31h0"></path>
            <path d="M40 31h20"></path>
            <g class="terminal">
                <path d="M60 31h0"></path>
                <path d="M88.5 31h0"></path>
                <rect x="60" y="20" width="28.5" height="22" rx="10" ry="10"></rect>
                <text x="74.25" y="35">:</text>
            </g>
            <path d="M88.5 31h20"></path>
            <path d="M40 31a10 10 0 0 1 10 10v10a10 10 0 0 0 10 10"></path>
            <g class="terminal">
                <path d="M60 61h0"></path>
                <path d="M88.5 61h0"></path>
                <rect x="60" y="50" width="28.5" height="22" rx="10" ry="10"></rect>
                <text x="74.25" y="65">=</text>
            </g>
            <path d="M88.5 61a10 10 0 0 0 10 -10v-10a10 10 0 0 1 10 -10"></path>
        </g>
        <path d="M 108.5 31 h 20 m 0 -10 v 20"></path>
    </g>
    <style>
        svg {
        }
        path {
        stroke-width: 3;
        stroke: black;
        fill: rgba(0,0,0,0);
        }
        text {
        font: bold 14px monospace;
        text-anchor: middle;
        white-space: pre;
        }
        text.diagram-text {
        font-size: 12px;
        }
        text.diagram-arrow {
        font-size: 16px;
        }
        text.label {
        text-anchor: start;
        }
        text.comment {
        font: italic 12px monospace;
        }
        g.non-terminal text {
        /*font-style: italic;*/
        }
        rect {
        stroke-width: 3;
        stroke: black;
        fill: hsl(120,100%,90%);
        }
        path.diagram-text {
        stroke-width: 3;
        stroke: black;
        fill: white;
        cursor: help;
        }
        g.diagram-text:hover path.diagram-text {
        fill: #eee;
        }
    </style>
</svg>
