<?xml version="1.0" encoding="utf-8"?>
<svg xmlns="http://www.w3.org/2000/svg" version="1.1" class="railroad-diagram" width="465" height="101" viewBox="0 0 465 101">
    <g transform="translate(.5 .5)">
        <g>
            <path d="M20 30v20m0 -10h20"></path>
        </g>
        <g>
            <path d="M40 40h0"></path>
            <path d="M425 40h0"></path>
            <path d="M40 40h20"></path>
            <g>
                <path d="M60 40h0"></path>
                <path d="M405 40h0"></path>
                <g>
                    <path d="M60 40h0"></path>
                    <path d="M247.5 40h0"></path>
                    <path d="M60 40a10 10 0 0 0 10 -10v0a10 10 0 0 1 10 -10"></path>
                    <g>
                        <path d="M80 20h147.5"></path>
                    </g>
                    <path d="M227.5 20a10 10 0 0 1 10 10v0a10 10 0 0 0 10 10"></path>
                    <path d="M60 40h20"></path>
                    <g class="non-terminal">
                        <path d="M80 40h0"></path>
                        <path d="M227.5 40h0"></path>
                        <rect x="80" y="29" width="147.5" height="22"></rect>
                        <text x="153.75" y="44">separator-blank</text>
                    </g>
                    <path d="M227.5 40h20"></path>
                </g>
                <path d="M247.5 40h10"></path>
                <g class="non-terminal">
                    <path d="M257.5 40h0"></path>
                    <path d="M405 40h0"></path>
                    <rect x="257.5" y="29" width="147.5" height="22"></rect>
                    <text x="331.25" y="44">separator-chars</text>
                </g>
            </g>
            <path d="M405 40h20"></path>
            <path d="M40 40a10 10 0 0 1 10 10v10a10 10 0 0 0 10 10"></path>
            <g class="non-terminal">
                <path d="M60 70h98.75"></path>
                <path d="M306.25 70h98.75"></path>
                <rect x="158.75" y="59" width="147.5" height="22"></rect>
                <text x="232.5" y="74">separator-blank</text>
            </g>
            <path d="M405 70a10 10 0 0 0 10 -10v-10a10 10 0 0 1 10 -10"></path>
        </g>
        <path d="M 425 40 h 20 m 0 -10 v 20"></path>
    </g>
    <style>
        svg {
        }
        path {
        stroke-width: 3;
        stroke: black;
        fill: rgba(0,0,0,0);
        }
        text {
        font: bold 14px monospace;
        text-anchor: middle;
        white-space: pre;
        }
        text.diagram-text {
        font-size: 12px;
        }
        text.diagram-arrow {
        font-size: 16px;
        }
        text.label {
        text-anchor: start;
        }
        text.comment {
        font: italic 12px monospace;
        }
        g.non-terminal text {
        /*font-style: italic;*/
        }
        rect {
        stroke-width: 3;
        stroke: black;
        fill: hsl(120,100%,90%);
        }
        path.diagram-text {
        stroke-width: 3;
        stroke: black;
        fill: white;
        cursor: help;
        }
        g.diagram-text:hover path.diagram-text {
        fill: #eee;
        }
    </style>
</svg>
