<?xml version="1.0" encoding="utf-8"?>
<svg xmlns="http://www.w3.org/2000/svg" version="1.1" class="railroad-diagram" width="273.5" height="160" viewBox="0 0 273.5 160">
    <g transform="translate(.5 .5)">
        <g>
            <path d="M20 21v20m0 -10h20"></path>
        </g>
        <path d="M40 31h10"></path>
        <g>
            <path d="M50 31h0"></path>
            <path d="M223.5 31h0"></path>
            <path d="M50 31h10"></path>
            <g>
                <path d="M60 31h0"></path>
                <path d="M213.5 31h0"></path>
                <path d="M60 31h20"></path>
                <g class="non-terminal">
                    <path d="M80 31h0"></path>
                    <path d="M193.5 31h0"></path>
                    <rect x="80" y="20" width="113.5" height="22"></rect>
                    <text x="136.75" y="35">value-chars</text>
                </g>
                <path d="M193.5 31h20"></path>
                <path d="M60 31a10 10 0 0 1 10 10v10a10 10 0 0 0 10 10"></path>
                <g class="non-terminal">
                    <path d="M80 61h17"></path>
                    <path d="M176.5 61h17"></path>
                    <rect x="97" y="50" width="79.5" height="22"></rect>
                    <text x="136.75" y="65">unicode</text>
                </g>
                <path d="M193.5 61a10 10 0 0 0 10 -10v-10a10 10 0 0 1 10 -10"></path>
                <path d="M60 31a10 10 0 0 1 10 10v40a10 10 0 0 0 10 10"></path>
                <g class="non-terminal">
                    <path d="M80 91h21.25"></path>
                    <path d="M172.25 91h21.25"></path>
                    <rect x="101.25" y="80" width="71" height="22"></rect>
                    <text x="136.75" y="95">escape</text>
                </g>
                <path d="M193.5 91a10 10 0 0 0 10 -10v-40a10 10 0 0 1 10 -10"></path>
                <path d="M60 31a10 10 0 0 1 10 10v70a10 10 0 0 0 10 10"></path>
                <g class="non-terminal">
                    <path d="M80 121h4.25"></path>
                    <path d="M189.25 121h4.25"></path>
                    <rect x="84.25" y="110" width="105" height="22"></rect>
                    <text x="136.75" y="125">line-break</text>
                </g>
                <path d="M193.5 121a10 10 0 0 0 10 -10v-70a10 10 0 0 1 10 -10"></path>
            </g>
            <path d="M213.5 31h10"></path>
            <path d="M60 31a10 10 0 0 0 -10 10v89a10 10 0 0 0 10 10"></path>
            <g>
                <path d="M60 140h153.5"></path>
            </g>
            <path d="M213.5 140a10 10 0 0 0 10 -10v-89a10 10 0 0 0 -10 -10"></path>
        </g>
        <path d="M223.5 31h10"></path>
        <path d="M 233.5 31 h 20 m 0 -10 v 20"></path>
    </g>
    <style>
        svg {
        }
        path {
        stroke-width: 3;
        stroke: black;
        fill: rgba(0,0,0,0);
        }
        text {
        font: bold 14px monospace;
        text-anchor: middle;
        white-space: pre;
        }
        text.diagram-text {
        font-size: 12px;
        }
        text.diagram-arrow {
        font-size: 16px;
        }
        text.label {
        text-anchor: start;
        }
        text.comment {
        font: italic 12px monospace;
        }
        g.non-terminal text {
        /*font-style: italic;*/
        }
        rect {
        stroke-width: 3;
        stroke: black;
        fill: hsl(120,100%,90%);
        }
        path.diagram-text {
        stroke-width: 3;
        stroke: black;
        fill: white;
        cursor: help;
        }
        g.diagram-text:hover path.diagram-text {
        fill: #eee;
        }
    </style>
</svg>
